<svg width="16" height="16" viewBox="0 0 20 20" fill="none" xmlns="http://www.w3.org/2000/svg">
<g transform="translate(2,2)">
<path d="M10.7937 12.1478H7.57997C7.40272 12.1478 7.25903 12.2915 7.25903 12.4688V15.6825C7.25903 15.8597 7.40272 16.0034 7.57997 16.0034H10.7937C10.9709 16.0034 11.1146 15.8597 11.1146 15.6825V12.4688C11.1146 12.2915 10.9709 12.1478 10.7937 12.1478Z" fill="url(#paint0_linear_779_1681)"/>
<mask id="mask0_779_1681" style="mask-type:luminance" maskUnits="userSpaceOnUse" x="7" y="12" width="5" height="5">
<path d="M10.7937 12.1478H7.57997C7.40272 12.1478 7.25903 12.2915 7.25903 12.4688V15.6825C7.25903 15.8597 7.40272 16.0034 7.57997 16.0034H10.7937C10.9709 16.0034 11.1146 15.8597 11.1146 15.6825V12.4688C11.1146 12.2915 10.9709 12.1478 10.7937 12.1478Z" fill="white"/>
</mask>
<g mask="url(#mask0_779_1681)">
<path d="M7.42429 12.1478H7.25903V16.0034H7.42429V12.1478Z" fill="url(#paint1_linear_779_1681)"/>
<path d="M7.58932 12.1478H7.42407V16.0034H7.58932V12.1478Z" fill="url(#paint2_linear_779_1681)"/>
<path d="M7.75363 12.1478H7.58838V16.0034H7.75363V12.1478Z" fill="url(#paint3_linear_779_1681)"/>
<path d="M7.91892 12.1478H7.75366V16.0034H7.91892V12.1478Z" fill="url(#paint4_linear_779_1681)"/>
<path d="M8.08444 12.1478H7.91919V16.0034H8.08444V12.1478Z" fill="url(#paint5_linear_779_1681)"/>
<path d="M8.24972 12.1478H8.08447V16.0034H8.24972V12.1478Z" fill="url(#paint6_linear_779_1681)"/>
<path d="M8.41476 12.1478H8.24951V16.0034H8.41476V12.1478Z" fill="url(#paint7_linear_779_1681)"/>
<path d="M8.58005 12.1478H8.41479V16.0034H8.58005V12.1478Z" fill="url(#paint8_linear_779_1681)"/>
<path d="M8.74533 12.1478H8.58008V16.0034H8.74533V12.1478Z" fill="url(#paint9_linear_779_1681)"/>
<path d="M8.91037 12.1478H8.74512V16.0034H8.91037V12.1478Z" fill="url(#paint10_linear_779_1681)"/>
<path d="M9.07468 12.1478H8.90942V16.0034H9.07468V12.1478Z" fill="url(#paint11_linear_779_1681)"/>
<path d="M9.2402 12.1478H9.07495V16.0034H9.2402V12.1478Z" fill="url(#paint12_linear_779_1681)"/>
<path d="M9.40549 12.1478H9.24023V16.0034H9.40549V12.1478Z" fill="url(#paint13_linear_779_1681)"/>
<path d="M9.57077 12.1478H9.40552V16.0034H9.57077V12.1478Z" fill="url(#paint14_linear_779_1681)"/>
<path d="M9.73581 12.1478H9.57056V16.0034H9.73581V12.1478Z" fill="url(#paint15_linear_779_1681)"/>
<path d="M9.90109 12.1478H9.73584V16.0034H9.90109V12.1478Z" fill="url(#paint16_linear_779_1681)"/>
<path d="M10.0666 12.1478H9.90137V16.0034H10.0666V12.1478Z" fill="url(#paint17_linear_779_1681)"/>
<path d="M10.2314 12.1478H10.0662V16.0034H10.2314V12.1478Z" fill="url(#paint18_linear_779_1681)"/>
<path d="M10.396 12.1478H10.2307V16.0034H10.396V12.1478Z" fill="url(#paint19_linear_779_1681)"/>
<path d="M10.5612 12.1478H10.396V16.0034H10.5612V12.1478Z" fill="url(#paint20_linear_779_1681)"/>
<path d="M10.7265 12.1478H10.5613V16.0034H10.7265V12.1478Z" fill="url(#paint21_linear_779_1681)"/>
<path d="M11.1145 12.1478H10.7266V16.0034H11.1145V12.1478Z" fill="url(#paint22_linear_779_1681)"/>
</g>
<path d="M15.6677 12.1478H12.454C12.2767 12.1478 12.1331 12.2915 12.1331 12.4688V15.6825C12.1331 15.8597 12.2767 16.0034 12.454 16.0034H15.6677C15.845 16.0034 15.9887 15.8597 15.9887 15.6825V12.4688C15.9887 12.2915 15.845 12.1478 15.6677 12.1478Z" fill="url(#paint23_linear_779_1681)"/>
<mask id="mask1_779_1681" style="mask-type:luminance" maskUnits="userSpaceOnUse" x="12" y="12" width="4" height="5">
<path d="M15.6677 12.1478H12.454C12.2767 12.1478 12.1331 12.2915 12.1331 12.4688V15.6825C12.1331 15.8597 12.2767 16.0034 12.454 16.0034H15.6677C15.845 16.0034 15.9887 15.8597 15.9887 15.6825V12.4688C15.9887 12.2915 15.845 12.1478 15.6677 12.1478Z" fill="white"/>
</mask>
<g mask="url(#mask1_779_1681)">
<path d="M12.2983 12.1478H12.1331V16.0034H12.2983V12.1478Z" fill="url(#paint24_linear_779_1681)"/>
<path d="M12.4636 12.1478H12.2983V16.0034H12.4636V12.1478Z" fill="url(#paint25_linear_779_1681)"/>
<path d="M12.6286 12.1478H12.4634V16.0034H12.6286V12.1478Z" fill="url(#paint26_linear_779_1681)"/>
<path d="M12.7939 12.1478H12.6287V16.0034H12.7939V12.1478Z" fill="url(#paint27_linear_779_1681)"/>
<path d="M12.9592 12.1478H12.7939V16.0034H12.9592V12.1478Z" fill="url(#paint28_linear_779_1681)"/>
<path d="M13.1238 12.1478H12.9585V16.0034H13.1238V12.1478Z" fill="url(#paint29_linear_779_1681)"/>
<path d="M13.289 12.1478H13.1238V16.0034H13.289V12.1478Z" fill="url(#paint30_linear_779_1681)"/>
<path d="M13.4541 12.1478H13.2888V16.0034H13.4541V12.1478Z" fill="url(#paint31_linear_779_1681)"/>
<path d="M13.6194 12.1478H13.4541V16.0034H13.6194V12.1478Z" fill="url(#paint32_linear_779_1681)"/>
<path d="M13.7846 12.1478H13.6194V16.0034H13.7846V12.1478Z" fill="url(#paint33_linear_779_1681)"/>
<path d="M13.9499 12.1478H13.7847V16.0034H13.9499V12.1478Z" fill="url(#paint34_linear_779_1681)"/>
<path d="M14.115 12.1478H13.9497V16.0034H14.115V12.1478Z" fill="url(#paint35_linear_779_1681)"/>
<path d="M14.2805 12.1478H14.1152V16.0034H14.2805V12.1478Z" fill="url(#paint36_linear_779_1681)"/>
<path d="M14.4448 12.1478H14.2795V16.0034H14.4448V12.1478Z" fill="url(#paint37_linear_779_1681)"/>
<path d="M14.6101 12.1478H14.4448V16.0034H14.6101V12.1478Z" fill="url(#paint38_linear_779_1681)"/>
<path d="M14.7751 12.1478H14.6099V16.0034H14.7751V12.1478Z" fill="url(#paint39_linear_779_1681)"/>
<path d="M14.9404 12.1478H14.7751V16.0034H14.9404V12.1478Z" fill="url(#paint40_linear_779_1681)"/>
<path d="M15.1057 12.1478H14.9404V16.0034H15.1057V12.1478Z" fill="url(#paint41_linear_779_1681)"/>
<path d="M15.2712 12.1478H15.106V16.0034H15.2712V12.1478Z" fill="url(#paint42_linear_779_1681)"/>
<path d="M15.4362 12.1478H15.271V16.0034H15.4362V12.1478Z" fill="url(#paint43_linear_779_1681)"/>
<path d="M15.6015 12.1478H15.4363V16.0034H15.6015V12.1478Z" fill="url(#paint44_linear_779_1681)"/>
<path d="M15.9885 12.1478H15.6006V16.0034H15.9885V12.1478Z" fill="url(#paint45_linear_779_1681)"/>
</g>
<path d="M15.679 6.82397H12.4652C12.288 6.82397 12.1443 6.96766 12.1443 7.14491V10.3586C12.1443 10.5359 12.288 10.6796 12.4652 10.6796H15.679C15.8562 10.6796 15.9999 10.5359 15.9999 10.3586V7.14491C15.9999 6.96766 15.8562 6.82397 15.679 6.82397Z" fill="url(#paint46_linear_779_1681)"/>
<mask id="mask2_779_1681" style="mask-type:luminance" maskUnits="userSpaceOnUse" x="12" y="6" width="4" height="5">
<path d="M15.679 6.82397H12.4652C12.288 6.82397 12.1443 6.96766 12.1443 7.14491V10.3586C12.1443 10.5359 12.288 10.6796 12.4652 10.6796H15.679C15.8562 10.6796 15.9999 10.5359 15.9999 10.3586V7.14491C15.9999 6.96766 15.8562 6.82397 15.679 6.82397Z" fill="white"/>
</mask>
<g mask="url(#mask2_779_1681)">
<path d="M12.3095 6.82397H12.1443V10.6796H12.3095V6.82397Z" fill="url(#paint47_linear_779_1681)"/>
<path d="M12.4751 6.8241H12.3098V10.6797H12.4751V6.8241Z" fill="url(#paint48_linear_779_1681)"/>
<path d="M12.6394 6.8241H12.4741V10.6797H12.6394V6.8241Z" fill="url(#paint49_linear_779_1681)"/>
<path d="M12.8044 6.8241H12.6392V10.6797H12.8044V6.8241Z" fill="url(#paint50_linear_779_1681)"/>
<path d="M12.9697 6.8241H12.8044V10.6797H12.9697V6.8241Z" fill="url(#paint51_linear_779_1681)"/>
<path d="M13.135 6.8241H12.9697V10.6797H13.135V6.8241Z" fill="url(#paint52_linear_779_1681)"/>
<path d="M13.3003 6.8241H13.135V10.6797H13.3003V6.8241Z" fill="url(#paint53_linear_779_1681)"/>
<path d="M13.4653 6.8241H13.3V10.6797H13.4653V6.8241Z" fill="url(#paint54_linear_779_1681)"/>
<path d="M13.6308 6.8241H13.4656V10.6797H13.6308V6.8241Z" fill="url(#paint55_linear_779_1681)"/>
<path d="M13.7961 6.8241H13.6309V10.6797H13.7961V6.8241Z" fill="url(#paint56_linear_779_1681)"/>
<path d="M13.9604 6.8241H13.7952V10.6797H13.9604V6.8241Z" fill="url(#paint57_linear_779_1681)"/>
<path d="M14.1255 6.8241H13.9602V10.6797H14.1255V6.8241Z" fill="url(#paint58_linear_779_1681)"/>
<path d="M14.2907 6.8241H14.1255V10.6797H14.2907V6.8241Z" fill="url(#paint59_linear_779_1681)"/>
<path d="M14.4563 6.8241H14.291V10.6797H14.4563V6.8241Z" fill="url(#paint60_linear_779_1681)"/>
<path d="M14.6216 6.8241H14.4563V10.6797H14.6216V6.8241Z" fill="url(#paint61_linear_779_1681)"/>
<path d="M14.7866 6.8241H14.6213V10.6797H14.7866V6.8241Z" fill="url(#paint62_linear_779_1681)"/>
<path d="M14.9519 6.8241H14.7866V10.6797H14.9519V6.8241Z" fill="url(#paint63_linear_779_1681)"/>
<path d="M15.1162 6.8241H14.9509V10.6797H15.1162V6.8241Z" fill="url(#paint64_linear_779_1681)"/>
<path d="M15.2817 6.8241H15.1165V10.6797H15.2817V6.8241Z" fill="url(#paint65_linear_779_1681)"/>
<path d="M15.4465 6.8241H15.2812V10.6797H15.4465V6.8241Z" fill="url(#paint66_linear_779_1681)"/>
<path d="M15.612 6.8241H15.4468V10.6797H15.612V6.8241Z" fill="url(#paint67_linear_779_1681)"/>
<path d="M16 6.8241H15.6121V10.6797H16V6.8241Z" fill="url(#paint68_linear_779_1681)"/>
</g>
<path d="M15.5503 0H11.1685C11.0535 0.00135474 10.9437 0.0476069 10.8625 0.12887C10.7812 0.210133 10.7349 0.31996 10.7336 0.434875V4.5227L9.96212 5.3107H6.02563L5.25416 4.54184V0.434875C5.25281 0.31996 5.20656 0.210133 5.12529 0.12887C5.04403 0.0476069 4.9342 0.00135474 4.81929 0H0.434875C0.31989 0.00113294 0.209935 0.0473125 0.128624 0.128623C0.0473139 0.209934 0.00113294 0.31989 0 0.434875V4.81581C0.00113294 4.93079 0.0473139 5.04075 0.128624 5.12206C0.209935 5.20337 0.31989 5.24955 0.434875 5.25068H4.66882L5.30896 5.89082V10.063L4.65143 10.7345H0.563599C0.448684 10.7358 0.338856 10.7821 0.257593 10.8633C0.17633 10.9446 0.130079 11.0544 0.128724 11.1693V15.5511C0.128724 15.6665 0.174541 15.7771 0.256096 15.8586C0.337651 15.9402 0.448263 15.986 0.563599 15.986H4.94453C5.05987 15.986 5.17048 15.9402 5.25203 15.8586C5.33359 15.7771 5.37941 15.6665 5.37941 15.5511V11.2998L5.98823 10.6797H10.2378C10.3528 10.6785 10.4628 10.6324 10.5441 10.551C10.6254 10.4697 10.6716 10.3598 10.6727 10.2448V5.89604L11.2972 5.25764H15.5468C15.6617 5.25629 15.7715 5.21004 15.8528 5.12877C15.9341 5.04751 15.9803 4.93768 15.9817 4.82277V0.434875C15.9803 0.320552 15.9346 0.211235 15.854 0.130067C15.7735 0.048899 15.6646 0.00225172 15.5503 0Z" fill="url(#paint69_linear_779_1681)"/>
</g>
<defs>
<linearGradient id="paint0_linear_779_1681" x1="9.35252" y1="14.1491" x2="14.4232" y2="20.6183" gradientUnits="userSpaceOnUse">
<stop stop-color="#FFAA00"/>
<stop offset="0.41" stop-color="#FFA700"/>
<stop offset="0.75" stop-color="#FF9C00"/>
<stop offset="0.9" stop-color="#FF9500"/>
</linearGradient>
<linearGradient id="paint1_linear_779_1681" x1="4.55668" y1="10.5223" x2="9.62732" y2="16.9915" gradientUnits="userSpaceOnUse">
<stop stop-color="#FFAA00"/>
<stop offset="0.41" stop-color="#FFA700"/>
<stop offset="0.75" stop-color="#FF9C00"/>
<stop offset="0.9" stop-color="#FF9500"/>
</linearGradient>
<linearGradient id="paint2_linear_779_1681" x1="4.65827" y1="10.4422" x2="9.72893" y2="16.9114" gradientUnits="userSpaceOnUse">
<stop stop-color="#FFAA00"/>
<stop offset="0.41" stop-color="#FFA700"/>
<stop offset="0.75" stop-color="#FF9C00"/>
<stop offset="0.9" stop-color="#FF9500"/>
</linearGradient>
<linearGradient id="paint3_linear_779_1681" x1="4.76083" y1="10.3622" x2="9.83148" y2="16.8314" gradientUnits="userSpaceOnUse">
<stop stop-color="#FFAA00"/>
<stop offset="0.41" stop-color="#FFA700"/>
<stop offset="0.75" stop-color="#FF9C00"/>
<stop offset="0.9" stop-color="#FF9500"/>
</linearGradient>
<linearGradient id="paint4_linear_779_1681" x1="4.86344" y1="10.2822" x2="9.93321" y2="16.7515" gradientUnits="userSpaceOnUse">
<stop stop-color="#FFAA00"/>
<stop offset="0.41" stop-color="#FFA700"/>
<stop offset="0.75" stop-color="#FF9C00"/>
<stop offset="0.9" stop-color="#FF9500"/>
</linearGradient>
<linearGradient id="paint5_linear_779_1681" x1="4.96553" y1="10.2022" x2="10.0362" y2="16.6714" gradientUnits="userSpaceOnUse">
<stop stop-color="#FFAA00"/>
<stop offset="0.41" stop-color="#FFA700"/>
<stop offset="0.75" stop-color="#FF9C00"/>
<stop offset="0.9" stop-color="#FF9500"/>
</linearGradient>
<linearGradient id="paint6_linear_779_1681" x1="5.06819" y1="10.1222" x2="10.1388" y2="16.5914" gradientUnits="userSpaceOnUse">
<stop stop-color="#FFAA00"/>
<stop offset="0.41" stop-color="#FFA700"/>
<stop offset="0.75" stop-color="#FF9C00"/>
<stop offset="0.9" stop-color="#FF9500"/>
</linearGradient>
<linearGradient id="paint7_linear_779_1681" x1="5.1706" y1="10.0413" x2="10.2404" y2="16.5105" gradientUnits="userSpaceOnUse">
<stop stop-color="#FFAA00"/>
<stop offset="0.41" stop-color="#FFA700"/>
<stop offset="0.75" stop-color="#FF9C00"/>
<stop offset="0.9" stop-color="#FF9500"/>
</linearGradient>
<linearGradient id="paint8_linear_779_1681" x1="5.2724" y1="9.96127" x2="10.343" y2="16.4305" gradientUnits="userSpaceOnUse">
<stop stop-color="#FFAA00"/>
<stop offset="0.41" stop-color="#FFA700"/>
<stop offset="0.75" stop-color="#FF9C00"/>
<stop offset="0.9" stop-color="#FF9500"/>
</linearGradient>
<linearGradient id="paint9_linear_779_1681" x1="5.37501" y1="9.88126" x2="10.4456" y2="16.3505" gradientUnits="userSpaceOnUse">
<stop stop-color="#FFAA00"/>
<stop offset="0.41" stop-color="#FFA700"/>
<stop offset="0.75" stop-color="#FF9C00"/>
<stop offset="0.9" stop-color="#FF9500"/>
</linearGradient>
<linearGradient id="paint10_linear_779_1681" x1="5.4766" y1="9.80124" x2="10.5473" y2="16.2704" gradientUnits="userSpaceOnUse">
<stop stop-color="#FFAA00"/>
<stop offset="0.41" stop-color="#FFA700"/>
<stop offset="0.75" stop-color="#FF9C00"/>
<stop offset="0.9" stop-color="#FF9500"/>
</linearGradient>
<linearGradient id="paint11_linear_779_1681" x1="5.57916" y1="9.72122" x2="10.6498" y2="16.1904" gradientUnits="userSpaceOnUse">
<stop stop-color="#FFAA00"/>
<stop offset="0.41" stop-color="#FFA700"/>
<stop offset="0.75" stop-color="#FF9C00"/>
<stop offset="0.9" stop-color="#FF9500"/>
</linearGradient>
<linearGradient id="paint12_linear_779_1681" x1="5.68207" y1="9.64034" x2="10.7518" y2="16.1095" gradientUnits="userSpaceOnUse">
<stop stop-color="#FFAA00"/>
<stop offset="0.41" stop-color="#FFA700"/>
<stop offset="0.75" stop-color="#FF9C00"/>
<stop offset="0.9" stop-color="#FF9500"/>
</linearGradient>
<linearGradient id="paint13_linear_779_1681" x1="5.7838" y1="9.56032" x2="10.8544" y2="16.0296" gradientUnits="userSpaceOnUse">
<stop stop-color="#FFAA00"/>
<stop offset="0.41" stop-color="#FFA700"/>
<stop offset="0.75" stop-color="#FF9C00"/>
<stop offset="0.9" stop-color="#FF9500"/>
</linearGradient>
<linearGradient id="paint14_linear_779_1681" x1="5.88652" y1="9.4803" x2="10.9572" y2="15.9495" gradientUnits="userSpaceOnUse">
<stop stop-color="#FFAA00"/>
<stop offset="0.41" stop-color="#FFA700"/>
<stop offset="0.75" stop-color="#FF9C00"/>
<stop offset="0.9" stop-color="#FF9500"/>
</linearGradient>
<linearGradient id="paint15_linear_779_1681" x1="5.98894" y1="9.40028" x2="11.0587" y2="15.8695" gradientUnits="userSpaceOnUse">
<stop stop-color="#FFAA00"/>
<stop offset="0.41" stop-color="#FFA700"/>
<stop offset="0.75" stop-color="#FF9C00"/>
<stop offset="0.9" stop-color="#FF9500"/>
</linearGradient>
<linearGradient id="paint16_linear_779_1681" x1="6.09073" y1="9.32027" x2="11.1614" y2="15.7895" gradientUnits="userSpaceOnUse">
<stop stop-color="#FFAA00"/>
<stop offset="0.41" stop-color="#FFA700"/>
<stop offset="0.75" stop-color="#FF9C00"/>
<stop offset="0.9" stop-color="#FF9500"/>
</linearGradient>
<linearGradient id="paint17_linear_779_1681" x1="6.19363" y1="9.23938" x2="11.2643" y2="15.7086" gradientUnits="userSpaceOnUse">
<stop stop-color="#FFAA00"/>
<stop offset="0.41" stop-color="#FFA700"/>
<stop offset="0.75" stop-color="#FF9C00"/>
<stop offset="0.9" stop-color="#FF9500"/>
</linearGradient>
<linearGradient id="paint18_linear_779_1681" x1="6.29488" y1="9.15936" x2="11.3655" y2="15.6286" gradientUnits="userSpaceOnUse">
<stop stop-color="#FFAA00"/>
<stop offset="0.41" stop-color="#FFA700"/>
<stop offset="0.75" stop-color="#FF9C00"/>
<stop offset="0.9" stop-color="#FF9500"/>
</linearGradient>
<linearGradient id="paint19_linear_779_1681" x1="6.39773" y1="9.07935" x2="11.4684" y2="15.5485" gradientUnits="userSpaceOnUse">
<stop stop-color="#FFAA00"/>
<stop offset="0.41" stop-color="#FFA700"/>
<stop offset="0.75" stop-color="#FF9C00"/>
<stop offset="0.9" stop-color="#FF9500"/>
</linearGradient>
<linearGradient id="paint20_linear_779_1681" x1="6.5004" y1="8.99933" x2="11.5702" y2="15.4685" gradientUnits="userSpaceOnUse">
<stop stop-color="#FFAA00"/>
<stop offset="0.41" stop-color="#FFA700"/>
<stop offset="0.75" stop-color="#FF9C00"/>
<stop offset="0.9" stop-color="#FF9500"/>
</linearGradient>
<linearGradient id="paint21_linear_779_1681" x1="6.60212" y1="8.91931" x2="11.6728" y2="15.3886" gradientUnits="userSpaceOnUse">
<stop stop-color="#FFAA00"/>
<stop offset="0.41" stop-color="#FFA700"/>
<stop offset="0.75" stop-color="#FF9C00"/>
<stop offset="0.9" stop-color="#FF9500"/>
</linearGradient>
<linearGradient id="paint22_linear_779_1681" x1="6.77355" y1="8.7845" x2="11.8442" y2="15.2537" gradientUnits="userSpaceOnUse">
<stop stop-color="#FFAA00"/>
<stop offset="0.41" stop-color="#FFA700"/>
<stop offset="0.75" stop-color="#FF9C00"/>
<stop offset="0.9" stop-color="#FF9500"/>
</linearGradient>
<linearGradient id="paint23_linear_779_1681" x1="12.3722" y1="11.7825" x2="17.4429" y2="18.2517" gradientUnits="userSpaceOnUse">
<stop stop-color="#FFAA00"/>
<stop offset="0.41" stop-color="#FFA700"/>
<stop offset="0.75" stop-color="#FF9C00"/>
<stop offset="0.9" stop-color="#FF9500"/>
</linearGradient>
<linearGradient id="paint24_linear_779_1681" x1="7.57645" y1="8.15567" x2="12.6462" y2="14.6249" gradientUnits="userSpaceOnUse">
<stop stop-color="#FFAA00"/>
<stop offset="0.41" stop-color="#FFA700"/>
<stop offset="0.75" stop-color="#FF9C00"/>
<stop offset="0.9" stop-color="#FF9500"/>
</linearGradient>
<linearGradient id="paint25_linear_779_1681" x1="7.67817" y1="8.07565" x2="12.7488" y2="14.5449" gradientUnits="userSpaceOnUse">
<stop stop-color="#FFAA00"/>
<stop offset="0.41" stop-color="#FFA700"/>
<stop offset="0.75" stop-color="#FF9C00"/>
<stop offset="0.9" stop-color="#FF9500"/>
</linearGradient>
<linearGradient id="paint26_linear_779_1681" x1="7.78066" y1="7.99564" x2="12.8513" y2="14.4648" gradientUnits="userSpaceOnUse">
<stop stop-color="#FFAA00"/>
<stop offset="0.41" stop-color="#FFA700"/>
<stop offset="0.75" stop-color="#FF9C00"/>
<stop offset="0.9" stop-color="#FF9500"/>
</linearGradient>
<linearGradient id="paint27_linear_779_1681" x1="7.88245" y1="7.91562" x2="12.9531" y2="14.3848" gradientUnits="userSpaceOnUse">
<stop stop-color="#FFAA00"/>
<stop offset="0.41" stop-color="#FFA700"/>
<stop offset="0.75" stop-color="#FF9C00"/>
<stop offset="0.9" stop-color="#FF9500"/>
</linearGradient>
<linearGradient id="paint28_linear_779_1681" x1="7.98511" y1="7.8356" x2="13.0558" y2="14.3048" gradientUnits="userSpaceOnUse">
<stop stop-color="#FFAA00"/>
<stop offset="0.41" stop-color="#FFA700"/>
<stop offset="0.75" stop-color="#FF9C00"/>
<stop offset="0.9" stop-color="#FF9500"/>
</linearGradient>
<linearGradient id="paint29_linear_779_1681" x1="8.08783" y1="7.75472" x2="13.1576" y2="14.224" gradientUnits="userSpaceOnUse">
<stop stop-color="#FFAA00"/>
<stop offset="0.41" stop-color="#FFA700"/>
<stop offset="0.75" stop-color="#FF9C00"/>
<stop offset="0.9" stop-color="#FF9500"/>
</linearGradient>
<linearGradient id="paint30_linear_779_1681" x1="8.1897" y1="7.6747" x2="13.2604" y2="14.1439" gradientUnits="userSpaceOnUse">
<stop stop-color="#FFAA00"/>
<stop offset="0.41" stop-color="#FFA700"/>
<stop offset="0.75" stop-color="#FF9C00"/>
<stop offset="0.9" stop-color="#FF9500"/>
</linearGradient>
<linearGradient id="paint31_linear_779_1681" x1="8.29212" y1="7.59468" x2="13.3628" y2="14.0639" gradientUnits="userSpaceOnUse">
<stop stop-color="#FFAA00"/>
<stop offset="0.41" stop-color="#FFA700"/>
<stop offset="0.75" stop-color="#FF9C00"/>
<stop offset="0.9" stop-color="#FF9500"/>
</linearGradient>
<linearGradient id="paint32_linear_779_1681" x1="8.39391" y1="7.51467" x2="13.4646" y2="13.9839" gradientUnits="userSpaceOnUse">
<stop stop-color="#FFAA00"/>
<stop offset="0.41" stop-color="#FFA700"/>
<stop offset="0.75" stop-color="#FF9C00"/>
<stop offset="0.9" stop-color="#FF9500"/>
</linearGradient>
<linearGradient id="paint33_linear_779_1681" x1="8.49657" y1="7.43465" x2="13.5672" y2="13.9038" gradientUnits="userSpaceOnUse">
<stop stop-color="#FFAA00"/>
<stop offset="0.41" stop-color="#FFA700"/>
<stop offset="0.75" stop-color="#FF9C00"/>
<stop offset="0.9" stop-color="#FF9500"/>
</linearGradient>
<linearGradient id="paint34_linear_779_1681" x1="8.59915" y1="7.35463" x2="13.6689" y2="13.8239" gradientUnits="userSpaceOnUse">
<stop stop-color="#FFAA00"/>
<stop offset="0.41" stop-color="#FFA700"/>
<stop offset="0.75" stop-color="#FF9C00"/>
<stop offset="0.9" stop-color="#FF9500"/>
</linearGradient>
<linearGradient id="paint35_linear_779_1681" x1="8.70078" y1="7.27374" x2="13.7714" y2="13.7429" gradientUnits="userSpaceOnUse">
<stop stop-color="#FFAA00"/>
<stop offset="0.41" stop-color="#FFA700"/>
<stop offset="0.75" stop-color="#FF9C00"/>
<stop offset="0.9" stop-color="#FF9500"/>
</linearGradient>
<linearGradient id="paint36_linear_779_1681" x1="8.80368" y1="7.19373" x2="13.8743" y2="13.6629" gradientUnits="userSpaceOnUse">
<stop stop-color="#FFAA00"/>
<stop offset="0.41" stop-color="#FFA700"/>
<stop offset="0.75" stop-color="#FF9C00"/>
<stop offset="0.9" stop-color="#FF9500"/>
</linearGradient>
<linearGradient id="paint37_linear_779_1681" x1="8.90615" y1="7.11371" x2="13.9759" y2="13.583" gradientUnits="userSpaceOnUse">
<stop stop-color="#FFAA00"/>
<stop offset="0.41" stop-color="#FFA700"/>
<stop offset="0.75" stop-color="#FF9C00"/>
<stop offset="0.9" stop-color="#FF9500"/>
</linearGradient>
<linearGradient id="paint38_linear_779_1681" x1="9.00803" y1="7.03369" x2="14.0787" y2="13.5029" gradientUnits="userSpaceOnUse">
<stop stop-color="#FFAA00"/>
<stop offset="0.41" stop-color="#FFA700"/>
<stop offset="0.75" stop-color="#FF9C00"/>
<stop offset="0.9" stop-color="#FF9500"/>
</linearGradient>
<linearGradient id="paint39_linear_779_1681" x1="9.11045" y1="6.95368" x2="14.1811" y2="13.4229" gradientUnits="userSpaceOnUse">
<stop stop-color="#FFAA00"/>
<stop offset="0.41" stop-color="#FFA700"/>
<stop offset="0.75" stop-color="#FF9C00"/>
<stop offset="0.9" stop-color="#FF9500"/>
</linearGradient>
<linearGradient id="paint40_linear_779_1681" x1="9.21224" y1="6.87279" x2="14.2829" y2="13.342" gradientUnits="userSpaceOnUse">
<stop stop-color="#FFAA00"/>
<stop offset="0.41" stop-color="#FFA700"/>
<stop offset="0.75" stop-color="#FF9C00"/>
<stop offset="0.9" stop-color="#FF9500"/>
</linearGradient>
<linearGradient id="paint41_linear_779_1681" x1="9.3149" y1="6.79277" x2="14.3856" y2="13.262" gradientUnits="userSpaceOnUse">
<stop stop-color="#FFAA00"/>
<stop offset="0.41" stop-color="#FFA700"/>
<stop offset="0.75" stop-color="#FF9C00"/>
<stop offset="0.9" stop-color="#FF9500"/>
</linearGradient>
<linearGradient id="paint42_linear_779_1681" x1="9.41772" y1="6.71275" x2="14.4875" y2="13.182" gradientUnits="userSpaceOnUse">
<stop stop-color="#FFAA00"/>
<stop offset="0.41" stop-color="#FFA700"/>
<stop offset="0.75" stop-color="#FF9C00"/>
<stop offset="0.9" stop-color="#FF9500"/>
</linearGradient>
<linearGradient id="paint43_linear_779_1681" x1="9.51935" y1="6.63274" x2="14.59" y2="13.1019" gradientUnits="userSpaceOnUse">
<stop stop-color="#FFAA00"/>
<stop offset="0.41" stop-color="#FFA700"/>
<stop offset="0.75" stop-color="#FF9C00"/>
<stop offset="0.9" stop-color="#FF9500"/>
</linearGradient>
<linearGradient id="paint44_linear_779_1681" x1="9.62202" y1="6.55272" x2="14.6927" y2="13.0219" gradientUnits="userSpaceOnUse">
<stop stop-color="#FFAA00"/>
<stop offset="0.41" stop-color="#FFA700"/>
<stop offset="0.75" stop-color="#FF9C00"/>
<stop offset="0.9" stop-color="#FF9500"/>
</linearGradient>
<linearGradient id="paint45_linear_779_1681" x1="9.79323" y1="6.41791" x2="14.8639" y2="12.8871" gradientUnits="userSpaceOnUse">
<stop stop-color="#FFAA00"/>
<stop offset="0.41" stop-color="#FFA700"/>
<stop offset="0.75" stop-color="#FF9C00"/>
<stop offset="0.9" stop-color="#FF9500"/>
</linearGradient>
<linearGradient id="paint46_linear_779_1681" x1="14.9631" y1="9.75156" x2="20.0338" y2="16.2208" gradientUnits="userSpaceOnUse">
<stop stop-color="#FFAA00"/>
<stop offset="0.41" stop-color="#FFA700"/>
<stop offset="0.75" stop-color="#FF9C00"/>
<stop offset="0.9" stop-color="#FF9500"/>
</linearGradient>
<linearGradient id="paint47_linear_779_1681" x1="10.1674" y1="6.1247" x2="15.238" y2="12.5939" gradientUnits="userSpaceOnUse">
<stop stop-color="#FFAA00"/>
<stop offset="0.41" stop-color="#FFA700"/>
<stop offset="0.75" stop-color="#FF9C00"/>
<stop offset="0.9" stop-color="#FF9500"/>
</linearGradient>
<linearGradient id="paint48_linear_779_1681" x1="10.2703" y1="6.0448" x2="15.34" y2="12.514" gradientUnits="userSpaceOnUse">
<stop stop-color="#FFAA00"/>
<stop offset="0.41" stop-color="#FFA700"/>
<stop offset="0.75" stop-color="#FF9C00"/>
<stop offset="0.9" stop-color="#FF9500"/>
</linearGradient>
<linearGradient id="paint49_linear_779_1681" x1="10.3719" y1="5.96478" x2="15.4426" y2="12.434" gradientUnits="userSpaceOnUse">
<stop stop-color="#FFAA00"/>
<stop offset="0.41" stop-color="#FFA700"/>
<stop offset="0.75" stop-color="#FF9C00"/>
<stop offset="0.9" stop-color="#FF9500"/>
</linearGradient>
<linearGradient id="paint50_linear_779_1681" x1="10.4744" y1="5.88477" x2="15.545" y2="12.354" gradientUnits="userSpaceOnUse">
<stop stop-color="#FFAA00"/>
<stop offset="0.41" stop-color="#FFA700"/>
<stop offset="0.75" stop-color="#FF9C00"/>
<stop offset="0.9" stop-color="#FF9500"/>
</linearGradient>
<linearGradient id="paint51_linear_779_1681" x1="10.577" y1="5.80388" x2="15.6468" y2="12.2731" gradientUnits="userSpaceOnUse">
<stop stop-color="#FFAA00"/>
<stop offset="0.41" stop-color="#FFA700"/>
<stop offset="0.75" stop-color="#FF9C00"/>
<stop offset="0.9" stop-color="#FF9500"/>
</linearGradient>
<linearGradient id="paint52_linear_779_1681" x1="10.6788" y1="5.72386" x2="15.7495" y2="12.1931" gradientUnits="userSpaceOnUse">
<stop stop-color="#FFAA00"/>
<stop offset="0.41" stop-color="#FFA700"/>
<stop offset="0.75" stop-color="#FF9C00"/>
<stop offset="0.9" stop-color="#FF9500"/>
</linearGradient>
<linearGradient id="paint53_linear_779_1681" x1="10.7814" y1="5.64384" x2="15.8521" y2="12.1131" gradientUnits="userSpaceOnUse">
<stop stop-color="#FFAA00"/>
<stop offset="0.41" stop-color="#FFA700"/>
<stop offset="0.75" stop-color="#FF9C00"/>
<stop offset="0.9" stop-color="#FF9500"/>
</linearGradient>
<linearGradient id="paint54_linear_779_1681" x1="10.883" y1="5.56383" x2="15.9537" y2="12.033" gradientUnits="userSpaceOnUse">
<stop stop-color="#FFAA00"/>
<stop offset="0.41" stop-color="#FFA700"/>
<stop offset="0.75" stop-color="#FF9C00"/>
<stop offset="0.9" stop-color="#FF9500"/>
</linearGradient>
<linearGradient id="paint55_linear_779_1681" x1="10.9859" y1="5.48381" x2="16.0566" y2="11.953" gradientUnits="userSpaceOnUse">
<stop stop-color="#FFAA00"/>
<stop offset="0.41" stop-color="#FFA700"/>
<stop offset="0.75" stop-color="#FF9C00"/>
<stop offset="0.9" stop-color="#FF9500"/>
</linearGradient>
<linearGradient id="paint56_linear_779_1681" x1="11.0886" y1="5.40292" x2="16.1584" y2="11.8721" gradientUnits="userSpaceOnUse">
<stop stop-color="#FFAA00"/>
<stop offset="0.41" stop-color="#FFA700"/>
<stop offset="0.75" stop-color="#FF9C00"/>
<stop offset="0.9" stop-color="#FF9500"/>
</linearGradient>
<linearGradient id="paint57_linear_779_1681" x1="11.1903" y1="5.32291" x2="16.2609" y2="11.7921" gradientUnits="userSpaceOnUse">
<stop stop-color="#FFAA00"/>
<stop offset="0.41" stop-color="#FFA700"/>
<stop offset="0.75" stop-color="#FF9C00"/>
<stop offset="0.9" stop-color="#FF9500"/>
</linearGradient>
<linearGradient id="paint58_linear_779_1681" x1="11.2927" y1="5.24289" x2="16.3633" y2="11.7121" gradientUnits="userSpaceOnUse">
<stop stop-color="#FFAA00"/>
<stop offset="0.41" stop-color="#FFA700"/>
<stop offset="0.75" stop-color="#FF9C00"/>
<stop offset="0.9" stop-color="#FF9500"/>
</linearGradient>
<linearGradient id="paint59_linear_779_1681" x1="11.3954" y1="5.16287" x2="16.4651" y2="11.6321" gradientUnits="userSpaceOnUse">
<stop stop-color="#FFAA00"/>
<stop offset="0.41" stop-color="#FFA700"/>
<stop offset="0.75" stop-color="#FF9C00"/>
<stop offset="0.9" stop-color="#FF9500"/>
</linearGradient>
<linearGradient id="paint60_linear_779_1681" x1="11.4974" y1="5.08286" x2="16.568" y2="11.552" gradientUnits="userSpaceOnUse">
<stop stop-color="#FFAA00"/>
<stop offset="0.41" stop-color="#FFA700"/>
<stop offset="0.75" stop-color="#FF9C00"/>
<stop offset="0.9" stop-color="#FF9500"/>
</linearGradient>
<linearGradient id="paint61_linear_779_1681" x1="11.6" y1="5.00197" x2="16.6706" y2="11.4712" gradientUnits="userSpaceOnUse">
<stop stop-color="#FFAA00"/>
<stop offset="0.41" stop-color="#FFA700"/>
<stop offset="0.75" stop-color="#FF9C00"/>
<stop offset="0.9" stop-color="#FF9500"/>
</linearGradient>
<linearGradient id="paint62_linear_779_1681" x1="11.7016" y1="4.92195" x2="16.7722" y2="11.3911" gradientUnits="userSpaceOnUse">
<stop stop-color="#FFAA00"/>
<stop offset="0.41" stop-color="#FFA700"/>
<stop offset="0.75" stop-color="#FF9C00"/>
<stop offset="0.9" stop-color="#FF9500"/>
</linearGradient>
<linearGradient id="paint63_linear_779_1681" x1="11.8043" y1="4.84193" x2="16.8749" y2="11.3111" gradientUnits="userSpaceOnUse">
<stop stop-color="#FFAA00"/>
<stop offset="0.41" stop-color="#FFA700"/>
<stop offset="0.75" stop-color="#FF9C00"/>
<stop offset="0.9" stop-color="#FF9500"/>
</linearGradient>
<linearGradient id="paint64_linear_779_1681" x1="11.9068" y1="4.76192" x2="16.9765" y2="11.2312" gradientUnits="userSpaceOnUse">
<stop stop-color="#FFAA00"/>
<stop offset="0.41" stop-color="#FFA700"/>
<stop offset="0.75" stop-color="#FF9C00"/>
<stop offset="0.9" stop-color="#FF9500"/>
</linearGradient>
<linearGradient id="paint65_linear_779_1681" x1="12.0088" y1="4.6819" x2="17.0795" y2="11.1511" gradientUnits="userSpaceOnUse">
<stop stop-color="#FFAA00"/>
<stop offset="0.41" stop-color="#FFA700"/>
<stop offset="0.75" stop-color="#FF9C00"/>
<stop offset="0.9" stop-color="#FF9500"/>
</linearGradient>
<linearGradient id="paint66_linear_779_1681" x1="12.111" y1="4.60188" x2="17.1817" y2="11.0711" gradientUnits="userSpaceOnUse">
<stop stop-color="#FFAA00"/>
<stop offset="0.41" stop-color="#FFA700"/>
<stop offset="0.75" stop-color="#FF9C00"/>
<stop offset="0.9" stop-color="#FF9500"/>
</linearGradient>
<linearGradient id="paint67_linear_779_1681" x1="12.2131" y1="4.521" x2="17.2837" y2="10.9902" gradientUnits="userSpaceOnUse">
<stop stop-color="#FFAA00"/>
<stop offset="0.41" stop-color="#FFA700"/>
<stop offset="0.75" stop-color="#FF9C00"/>
<stop offset="0.9" stop-color="#FF9500"/>
</linearGradient>
<linearGradient id="paint68_linear_779_1681" x1="12.3844" y1="4.38706" x2="17.4551" y2="10.8562" gradientUnits="userSpaceOnUse">
<stop stop-color="#FFAA00"/>
<stop offset="0.41" stop-color="#FFA700"/>
<stop offset="0.75" stop-color="#FF9C00"/>
<stop offset="0.9" stop-color="#FF9500"/>
</linearGradient>
<linearGradient id="paint69_linear_779_1681" x1="-6.21698" y1="16.9045" x2="6.06912" y2="4.61837" gradientUnits="userSpaceOnUse">
<stop stop-color="#0000FF"/>
<stop offset="0.84" stop-color="#3FA9F5"/>
</linearGradient>
</defs>
</svg>
